<svg xmlns="http://www.w3.org/2000/svg" viewBox="0 0 60 60"><defs><style>.cls-1{fill:#2d5680;}.cls-2{fill:#f9f7f7;}</style></defs><title>coordinador</title><g id="Capa_2" data-name="Capa 2"><g id="Capa_1-2" data-name="Capa 1"><path class="cls-1" d="M60,30A30,30,0,1,1,30,0,30,30,0,0,1,60,30Z"/><path class="cls-2" d="M27.19,18.29a6.1,6.1,0,1,1-6.09-6.1A6.1,6.1,0,0,1,27.19,18.29Z"/><path class="cls-2" d="M45.48,18.29a6.1,6.1,0,1,1-6.09-6.1A6.1,6.1,0,0,1,45.48,18.29Z"/><path class="cls-2" d="M35.9,43.84H5.42s-2.07-7,1.74-9a29.29,29.29,0,0,1,14.68-3.68c6.72,0,12.61,3.65,14.06,6.57A7.84,7.84,0,0,1,35.9,43.84Z"/><path class="cls-2" d="M55.06,43.84H41.13s2.1-7.7-3.66-11.86c0,0,9.17-2.08,13.82,2.57S55.06,43.84,55.06,43.84Z"/></g></g></svg>