<svg xmlns="http://www.w3.org/2000/svg" viewBox="0 0 60 60"><defs><style>.cls-1{fill:#2e5681;}.cls-2{fill:#fff;}</style></defs><title>Di_Interacciones</title><g id="Capa_2" data-name="Capa 2"><g id="Capa_1-2" data-name="Capa 1"><path class="cls-1" d="M60,30A30,30,0,1,1,30,0,30,30,0,0,1,60,30Z"/><path class="cls-2" d="M30.53,4.86c1.32.75,2.65,1.51,4,2.25L52.31,17A1.17,1.17,0,0,1,53,18.09q0,6.18,0,12.35a1.34,1.34,0,0,1-.08.56.75.75,0,0,1-1.39,0,1.84,1.84,0,0,1-.08-.7V19.71c0-.61,0-.62-.53-.33-1.89,1-3.76,2.09-5.65,3.12a.81.81,0,0,0-.48.81q0,6,0,12a.68.68,0,0,0,.48.74c1.89.83,3.79,1.68,5.67,2.53.48.21.51.19.51-.31,0-1.36,0-2.71,0-4.06a2.53,2.53,0,0,1,0-.47.78.78,0,0,1,.78-.73.76.76,0,0,1,.73.78q0,3.06,0,6.12a1,1,0,0,1-.62.87l-7.21,4-1.74,1a.78.78,0,0,1-1.18-.25c-.21-.39,0-.79.46-1.08l7.37-4.09c.11-.06.27-.09.35-.26a2.7,2.7,0,0,0-.74-.37l-5.25-2.35a.7.7,0,0,0-.7,0q-6.27,3.5-12.57,7a.69.69,0,0,0-.4.71c0,1.79,0,3.58,0,5.37,0,.62,0,.62.53.33l8.11-4.5.21-.11c.5-.26.93-.16,1.14.24a.75.75,0,0,1-.39,1.06c-1.24.71-2.49,1.4-3.75,2.09-2,1.1-4,2.18-5.92,3.29a1.21,1.21,0,0,1-1.32,0l-9.1-5a1.48,1.48,0,0,1-.36-.23.68.68,0,0,1-.18-.93.7.7,0,0,1,.93-.33,12,12,0,0,1,1.12.6c2.34,1.29,4.67,2.58,7,3.89.34.19.44.16.43-.25q0-2.76,0-5.52a.71.71,0,0,0-.41-.71q-6.16-3.4-12.32-6.83a1.09,1.09,0,0,0-1.09,0c-1.83.84-3.67,1.64-5.51,2.46-.11,0-.24.07-.32.23l3.2,1.78,4.78,2.65a3.47,3.47,0,0,1,.37.21.74.74,0,0,1,.31,1,.72.72,0,0,1-1,.31c-.7-.36-1.38-.75-2.07-1.13-2.49-1.38-5-2.76-7.46-4.12A1.12,1.12,0,0,1,7,39.74Q7,28.91,7,18.07A1.13,1.13,0,0,1,7.66,17Q18.4,11,29.13,5.08l.37-.22Zm-13,17.46.29.19L29.64,29a.65.65,0,0,0,.73,0Q36.21,25.78,42,22.57c.37-.21.28-.3,0-.47L30.37,15.64a.66.66,0,0,0-.74,0c-1.87,1.06-3.76,2.09-5.64,3.13l-6.41,3.56M29.21,36.64c0-1.87,0-3.74,0-5.61a.7.7,0,0,0-.42-.74c-3.86-2.13-7.73-4.27-11.58-6.42-.35-.19-.45-.16-.45.26q0,5.65,0,11.3a.7.7,0,0,0,.42.71l11.58,6.41c.44.25.45.24.45-.26V36.64m14-6.84c0-1.9,0-3.8,0-5.7,0-.38-.09-.43-.43-.25Q37,27.1,31.13,30.33a.63.63,0,0,0-.39.63c0,3.8,0,7.59,0,11.39,0,.38.09.44.41.25l11.66-6.46a.71.71,0,0,0,.43-.74c0-1.87,0-3.73,0-5.6M30.75,10.5c0,1.07,0,2.13,0,3.2a.63.63,0,0,0,.37.63l12.48,6.91a.76.76,0,0,0,.82,0c1.91-1.08,3.84-2.14,5.75-3.21.14-.06.35-.1.34-.28s-.21-.17-.34-.24L40.16,12,31.23,7c-.47-.27-.48-.26-.48.27,0,1.06,0,2.13,0,3.2M9.36,17.78l.37.23c1.92,1.06,3.85,2.11,5.76,3.2a.91.91,0,0,0,1,0q6.12-3.4,12.27-6.8a.78.78,0,0,0,.46-.77c0-2.11,0-4.21,0-6.31,0-.54,0-.54-.48-.28l-17,9.42L9.36,17.78M8.51,29v9.37c0,.4.09.45.44.28L14.79,36a.6.6,0,0,0,.45-.62q0-6.12,0-12.24a.61.61,0,0,0-.36-.6Q11.93,21,9,19.32c-.45-.25-.48-.22-.48.3V29"/></g></g></svg>