<svg xmlns="http://www.w3.org/2000/svg" viewBox="0 0 60 60"><defs><style>.cls-1{fill:#2e5681;}.cls-2{fill:#fff;}</style></defs><title>Di_Interrelaciones</title><g id="Capa_2" data-name="Capa 2"><g id="Capa_1-2" data-name="Capa 1"><path class="cls-1" d="M60,30A30,30,0,1,1,30,0,30,30,0,0,1,60,30Z"/><path class="cls-2" d="M47.88,30.06c0,3,0,6.07,0,9.1a1.25,1.25,0,0,0,.91,1.37c1,.4,2.07.89,3.11,1.34.17.08.36.15.53.24.73.38,1,.88.72,1.44s-.91.64-1.49.39c-1.24-.53-2.5-1-3.7-1.65a2.34,2.34,0,0,0-2.18,0c-4.93,2.16-9.87,4.26-14.8,6.41a2.33,2.33,0,0,1-2,0c-4.9-2.13-9.83-4.22-14.72-6.37a2.31,2.31,0,0,0-2.18,0c-1.18.59-2.42,1.08-3.63,1.61-.6.26-1.2.35-1.57-.36s0-1.09.8-1.47c1.15-.53,2.3-1.06,3.48-1.52a1.36,1.36,0,0,0,1-1.48c0-5.87,0-11.74-.05-17.62a2.39,2.39,0,0,1,1.7-2.6c4.8-2,9.54-4.07,14.31-6.08A1.22,1.22,0,0,0,29,11.42c0-1.6,0-3.2,0-4.8a6.26,6.26,0,0,1,0-.75c.09-.57.37-1,1-1s.92.44,1,1a5.5,5.5,0,0,1,0,.91c0,1.54,0,3.09,0,4.63a1.23,1.23,0,0,0,.87,1.37c4.92,2.08,9.82,4.22,14.76,6.3A1.78,1.78,0,0,1,47.89,21c0,3,0,6.07,0,9.1M15.81,40.69a3,3,0,0,0,.43.28l12.07,5.21c.51.23.68.1.67-.46q0-8.47,0-16.94a.85.85,0,0,0-.59-.88Q21.63,25,14.88,22.09c-.57-.24-.73-.07-.72.51,0,1.9,0,3.8,0,5.7,0,3.34,0,6.67,0,10,0,.76.21.85.84.53s1.56-.71,2.34-1c.62-.26,1.24-.33,1.54.41s-.16,1.14-.75,1.42l-2.31,1.06m28.49.06c-1-.47-1.78-.81-2.53-1.19-.58-.29-.93-.76-.61-1.41s.86-.62,1.42-.39c.84.35,1.68.7,2.5,1.1.53.26.77.26.77-.45q0-7.9,0-15.8c0-.67-.22-.73-.79-.49Q38.4,25,31.7,27.86A1,1,0,0,0,31,28.92q0,8.36,0,16.7c0,.75.25.76.82.5,2.33-1,4.66-2,7-3l5.48-2.36m0-20.5L39.8,18.32c-2.66-1.14-5.33-2.26-8-3.42-.62-.27-.85-.16-.79.53a5.72,5.72,0,0,1,0,1.24,1,1,0,0,1-2,0,5.14,5.14,0,0,1,0-1.24c0-.68-.16-.81-.8-.53-4,1.73-8,3.43-12,5.14-.11.05-.27.07-.31.23s.07.1.11.12L29.41,26.2a1.57,1.57,0,0,0,1.34-.06c2-.89,4-1.76,6.06-2.63l7.52-3.26"/><path class="cls-2" d="M22.26,37a.91.91,0,0,1-.83,1,.95.95,0,1,1-.2-1.88c.6-.06.91.29,1,.84"/><path class="cls-2" d="M38.71,36.16a1,1,0,0,1,0,1.91.93.93,0,0,1-1-1,.91.91,0,0,1,1-.92"/><path class="cls-2" d="M29.91,21.21a.87.87,0,0,1-.85-.92.89.89,0,0,1,.91-1,1,1,0,0,1,1,1,1,1,0,0,1-1.06.92"/></g></g></svg>