<svg xmlns="http://www.w3.org/2000/svg" viewBox="0 0 60 60"><defs><style>.cls-1{fill:#2e5681;}.cls-2{fill:#fff;}</style></defs><title>Di_Objetos</title><g id="Capa_2" data-name="Capa 2"><g id="Capa_1-2" data-name="Capa 1"><path class="cls-1" d="M60,30A30,30,0,1,1,30,0,30,30,0,0,1,60,30Z"/><path class="cls-2" d="M34.59,3.42a2,2,0,0,1,1.12,1.16Q38.57,12,41.48,19.33a1.64,1.64,0,0,1-1,2.35L25.63,27.51a1.61,1.61,0,0,1-2.21-1q-2.94-7.43-5.86-14.85a1.63,1.63,0,0,1,1-2.35L33.06,3.66l.56-.24ZM25.24,25.64l.4-.15q6.81-2.68,13.63-5.35c.37-.14.42-.27.28-.63q-2.71-6.87-5.4-13.76c-.13-.31-.25-.38-.59-.25q-6.84,2.72-13.71,5.39c-.39.15-.46.29-.3.69,1,2.44,1.93,4.89,2.89,7.34L25,25.28c.05.14.06.33.29.36"/><path class="cls-2" d="M52,30.55c-.1.69-.36,1.47-.56,2.26q-1.74,6.63-3.49,13.27a1.94,1.94,0,0,1-1.2,1.59,1.71,1.71,0,0,1-1.05,0L30.28,43.55a1.61,1.61,0,0,1-1.23-2.12Q31.11,33.71,33.17,26a1.66,1.66,0,0,1,2.25-1.2l13.51,3.59c.63.17,1.25.32,1.87.51A1.65,1.65,0,0,1,52,30.55M35.13,26.64c-.28-.06-.26.21-.3.39Q32.91,34.19,31,41.34c-.09.32,0,.44.29.53q7.14,1.86,14.29,3.75c.4.11.53,0,.63-.39C47.47,40.5,48.74,35.77,50,31c.1-.35,0-.45-.33-.54l-11-2.92-3.53-.94"/><path class="cls-2" d="M18.83,48.39H10.94a1.62,1.62,0,0,1-1.83-1.84q0-7.87,0-15.75A1.67,1.67,0,0,1,11,28.94H26.64a1.7,1.7,0,0,1,1.91,1.93c0,5.2,0,10.41,0,15.61a1.77,1.77,0,0,1-1.92,1.92c-2.6,0-5.2,0-7.81,0m7.83-9.69c0-2.45,0-4.89,0-7.33,0-.42-.11-.55-.53-.55H11.53c-.43,0-.55.13-.55.55,0,4.86,0,9.71,0,14.56,0,.44.11.58.57.58H26.11c.46,0,.57-.14.56-.57,0-2.42,0-4.83,0-7.24"/><path class="cls-2" d="M26.68,15.55c0-1.07-.07-2.38.05-3.7a1.29,1.29,0,0,1,.9-1.17,1.33,1.33,0,0,1,1.49.35l2.9,3,2.26,2.39a5.85,5.85,0,0,1,.45.54.88.88,0,0,1-.12,1.26.9.9,0,0,1-1.23-.1,10.29,10.29,0,0,1-1-1,.61.61,0,0,0-.8-.18c-.84.35-1.7.69-2.57,1a.55.55,0,0,0-.41.62,9.31,9.31,0,0,1-.05,1.58.87.87,0,0,1-.88.8.92.92,0,0,1-.93-.82,9.81,9.81,0,0,1-.08-1.09c0-1.09,0-2.19,0-3.53m1.78-2.78c0,.62,0,1.16,0,1.7s0,1.16.07,1.75c0,.19,0,.31.28.21.63-.26,1.27-.5,1.91-.75.18-.07.18-.16.06-.29l-2.33-2.62"/><path class="cls-2" d="M38.3,36.44c0,1.34.45,2,1.39,2.35A2.24,2.24,0,0,0,42.43,38c0-.05.08-.11.13-.17.39-.5.77-.61,1.21-.35a.88.88,0,0,1,.28,1.23,3.33,3.33,0,0,1-2.67,2,4.44,4.44,0,0,1-4.9-3.2,5.76,5.76,0,0,1,.57-4,4.45,4.45,0,0,1,7.31-.94,2.73,2.73,0,0,1,.78,2.2.89.89,0,0,1-.72.83.88.88,0,0,1-.92-.6,3.54,3.54,0,0,1-.17-.58,2.21,2.21,0,0,0-1.79-1.72,2.18,2.18,0,0,0-2.23.89,5.27,5.27,0,0,0-1,2.9"/><path class="cls-2" d="M21.25,38a2.38,2.38,0,0,1,1.59,1.67,2.56,2.56,0,0,1-2.34,3.19,31.07,31.07,0,0,1-4.42.1.88.88,0,0,1-.91-.94q0-3.72,0-7.45A.89.89,0,0,1,16,33.6a40.2,40.2,0,0,1,4.25,0,2.31,2.31,0,0,1,1,4.33m-2.73,3.46v0c.38,0,.76,0,1.14,0a1.19,1.19,0,0,0,1.22-1.17c0-.77-.29-1.16-1.11-1.31a15,15,0,0,0-2.32-.09c-.22,0-.31.11-.31.33,0,.63,0,1.25,0,1.88,0,.28.12.4.39.4h1m-.09-4.07a4.42,4.42,0,0,0,1.31-.11,1.12,1.12,0,0,0,.79-1.14c0-.48-.27-.75-.81-.89a11.18,11.18,0,0,0-2.31-.1c-.25,0-.27.19-.27.37,0,.44,0,.88,0,1.32s0,.55.57.55h.74"/></g></g></svg>