<svg xmlns="http://www.w3.org/2000/svg" viewBox="0 0 599.82 599.82"><defs><style>.cls-1{fill:#fff;stroke:#000;stroke-miterlimit:10;}.cls-2{fill:#fbbb00;}.cls-3{fill:#518ef8;}.cls-4{fill:#28b446;}.cls-5{fill:#f14336;}</style></defs><title>iconGoogle</title><g id="Capa_2" data-name="Capa 2"><g id="Layer_1" data-name="Layer 1"><rect class="cls-1" x="0.5" y="0.5" width="598.82" height="598.82"/><path class="cls-2" d="M157.38,353.32l-17.82,66.53-65.14,1.38a256.46,256.46,0,0,1-1.89-239h0l58,10.63,25.4,57.64a152.85,152.85,0,0,0,1.44,102.87Z"/><path class="cls-3" d="M551.44,252.09a255.93,255.93,0,0,1-91.26,247.46l0,0-73-3.72-10.34-64.54a152.55,152.55,0,0,0,65.65-77.91H305.54V252.09h245.9Z"/><path class="cls-4" d="M460.16,499.53l0,0A256.09,256.09,0,0,1,74.42,421.23l83-67.91a152.25,152.25,0,0,0,219.4,77.95Z"/><path class="cls-5" d="M463.31,102.85l-82.93,67.89a152.24,152.24,0,0,0-224.44,79.71L72.55,182.18h0a256,256,0,0,1,390.78-79.33Z"/></g></g></svg>