<?xml version="1.0" encoding="utf-8"?>
<!-- Generator: Adobe Illustrator 23.0.6, SVG Export Plug-In . SVG Version: 6.00 Build 0)  -->
<svg version="1.1" id="Capa_1" xmlns="http://www.w3.org/2000/svg" xmlns:xlink="http://www.w3.org/1999/xlink" x="0px" y="0px"
	 viewBox="0 0 345.8 345.8" style="enable-background:new 0 0 345.8 345.8;" xml:space="preserve">
<style type="text/css">
	.st0{fill:#09476E;}
</style>
<g>
	<path class="st0" d="M339.8,260.4c0.1,0,0.3-0.1,0.4-0.1c0.1,0,0.2-0.1,0.3-0.1c0.1,0,0.2-0.1,0.4-0.1c0.1,0,0.2-0.1,0.3-0.1
		c0.1,0,0.2-0.1,0.3-0.2c0.1-0.1,0.2-0.1,0.3-0.2c0.1-0.1,0.2-0.1,0.3-0.2c0.1-0.1,0.2-0.1,0.3-0.2c0.1-0.1,0.2-0.2,0.3-0.2
		c0.1-0.1,0.2-0.1,0.3-0.2c0.2-0.1,0.3-0.3,0.5-0.4c0,0,0.1,0,0.1-0.1c0,0,0.1-0.1,0.1-0.1c0.1-0.1,0.3-0.3,0.4-0.5
		c0.1-0.1,0.1-0.2,0.2-0.3c0.1-0.1,0.2-0.2,0.2-0.3c0.1-0.1,0.1-0.2,0.2-0.3c0.1-0.1,0.1-0.2,0.2-0.3c0.1-0.1,0.1-0.2,0.2-0.4
		c0-0.1,0.1-0.2,0.1-0.3c0-0.1,0.1-0.2,0.1-0.3c0-0.1,0.1-0.2,0.1-0.3c0-0.1,0.1-0.2,0.1-0.4c0-0.1,0.1-0.2,0.1-0.4
		c0-0.1,0-0.3,0.1-0.4c0-0.1,0-0.2,0-0.3c0-0.2,0-0.5,0-0.7V92.8c0-4.1-3.4-7.5-7.5-7.5H102.1c-0.1,0-0.1,0-0.2,0
		c-0.1,0-0.3,0-0.4,0c-0.1,0-0.2,0-0.3,0c-0.1,0-0.3,0-0.4,0.1c-0.1,0-0.2,0-0.4,0.1c-0.1,0-0.2,0.1-0.4,0.1c-0.1,0-0.2,0.1-0.3,0.1
		c-0.1,0-0.2,0.1-0.3,0.1c-0.1,0-0.2,0.1-0.3,0.1c-0.1,0.1-0.2,0.1-0.4,0.2c-0.1,0.1-0.2,0.1-0.3,0.2c-0.1,0.1-0.2,0.1-0.3,0.2
		c-0.1,0.1-0.2,0.1-0.3,0.2c-0.1,0.1-0.2,0.2-0.3,0.2c-0.1,0.1-0.2,0.2-0.3,0.2c-0.1,0.1-0.2,0.2-0.3,0.2c-0.1,0.1-0.2,0.2-0.3,0.3
		c0,0.1-0.1,0.1-0.1,0.1c0,0,0,0.1-0.1,0.1c-0.1,0.1-0.2,0.2-0.3,0.3c-0.1,0.1-0.1,0.2-0.2,0.3c-0.1,0.1-0.2,0.2-0.2,0.3
		c-0.1,0.1-0.1,0.2-0.2,0.3c-0.1,0.1-0.1,0.2-0.2,0.3c-0.1,0.1-0.1,0.2-0.2,0.3c0,0.1-0.1,0.2-0.1,0.3c0,0.1-0.1,0.2-0.1,0.3
		c0,0.1-0.1,0.2-0.1,0.3c0,0.1-0.1,0.2-0.1,0.4c0,0.1,0,0.2-0.1,0.3c0,0.1,0,0.3-0.1,0.4c0,0.1,0,0.2,0,0.3c0,0.1,0,0.3,0,0.4
		c0,0,0,0.1,0,0.1V139c0,4.1,3.4,7.5,7.5,7.5s7.5-3.4,7.5-7.5v-29.6l66.7,59c-0.3,0.2-0.7,0.5-1,0.8L109.6,235v-49.3
		c0-4.1-3.4-7.5-7.5-7.5s-7.5,3.4-7.5,7.5v9.2H55.8c-4.1,0-7.5,3.4-7.5,7.5s3.4,7.5,7.5,7.5h38.8v43.2c0,4.1,3.4,7.5,7.5,7.5h236.2
		c0.2,0,0.5,0,0.7,0c0.1,0,0.2,0,0.3,0C339.5,260.5,339.7,260.5,339.8,260.4z M330.8,235l-65.7-65.7c0,0-0.1-0.1-0.1-0.1l49.4-41.9
		c3.2-2.7,3.5-7.4,0.9-10.6c-2.7-3.2-7.4-3.5-10.6-0.9l-84.4,71.6l-98.4-87.2h209L330.8,235L330.8,235z M185.9,179.9
		c0.5-0.5,1-1.1,1.3-1.8l28.1,24.8c1.4,1.3,3.2,1.9,5,1.9c1.7,0,3.5-0.6,4.9-1.8l28.6-24.3c0.3,0.4,0.6,0.7,0.9,1.1l65.7,65.7h-200
		L185.9,179.9z"/>
	<path class="st0" d="M7.5,170.7h126.7c4.1,0,7.5-3.4,7.5-7.5s-3.4-7.5-7.5-7.5H7.5c-4.1,0-7.5,3.4-7.5,7.5S3.4,170.7,7.5,170.7z"/>
	<path class="st0" d="M20.6,129.3h56.9c4.1,0,7.5-3.4,7.5-7.5s-3.4-7.5-7.5-7.5H20.6c-4.1,0-7.5,3.4-7.5,7.5S16.5,129.3,20.6,129.3z
		"/>
	<path class="st0" d="M62.5,226.5h-55c-4.1,0-7.5,3.4-7.5,7.5s3.4,7.5,7.5,7.5h55c4.1,0,7.5-3.4,7.5-7.5S66.6,226.5,62.5,226.5z"/>
</g>
</svg>
