<svg xmlns="http://www.w3.org/2000/svg" viewBox="0 0 60 60"><defs><style>.cls-1{fill:#2d5680;}.cls-2{fill:#f7f7f7;}</style></defs><title>observador</title><g id="Capa_2" data-name="Capa 2"><g id="Capa_1-2" data-name="Capa 1"><path class="cls-1" d="M60,30A30,30,0,1,1,30,0,30,30,0,0,1,60,30Z"/><path class="cls-2" d="M30.17,25.43A3.22,3.22,0,1,1,27,22.21,3.22,3.22,0,0,1,30.17,25.43Z"/><path class="cls-2" d="M27,18.64c-3.86,0-13.15,3.67-13.15,6.79s9.29,6.5,13.15,6.5,13.16-3.39,13.16-6.5S30.82,18.64,27,18.64Zm0,11.61c-3.55,0-6.43-.26-6.43-4.72s2.88-5,6.43-5,6.44.54,6.44,5S30.51,30.25,27,30.25Z"/><path class="cls-2" d="M47.2,43.25l-7.36-7.73a16.22,16.22,0,1,0-4,3.51l.21-.14,7.55,7.92a2.55,2.55,0,0,0,3.56-3.56ZM14.92,25.43A12.32,12.32,0,1,1,27.23,37.74,12.31,12.31,0,0,1,14.92,25.43Z"/></g></g></svg>