<svg xmlns="http://www.w3.org/2000/svg" viewBox="0 0 438.5 436.41"><defs><style>.cls-1{fill:#f04c3e;}.cls-2{fill:#fff;fill-rule:evenodd;}</style></defs><title>univalle</title><g id="Capa_2" data-name="Capa 2"><g id="Capa_1-2" data-name="Capa 1"><rect class="cls-1" x="5.41" y="4.51" width="427.38" height="427.38"/><path class="cls-1" d="M.89,431.9l4.52-4.52H432.79v9H5.41L.89,431.9Zm4.52,4.51H.89V431.9l4.52,4.51ZM5.41,0,9.92,4.51V431.9h-9V4.51L5.41,0ZM.89,4.51V0H5.41L.89,4.51Zm436.41,0L432.79,9H5.41V0H432.79l4.51,4.51ZM432.79,0h4.51V4.51L432.79,0Zm0,436.41-4.52-4.51V4.51h9V431.9l-4.51,4.51Zm4.51-4.51v4.51h-4.51Z"/><path class="cls-2" d="M4.51,156.91c0,73.52,60,133.49,133.5,133.49s133.49-60,133.49-133.5V4.67H4.51V156.91Z"/><path class="cls-1" d="M138,285.89v9l-7.06-.17-7-.53-6.89-.87-6.8-1.23-6.66-1.55-6.55-1.86-6.41-2.17L84.39,284l-6.13-2.76-5.94-3.06-5.79-3.33-5.59-3.58-5.41-3.87-5.23-4.1-5-4.34-4.8-4.56-4.57-4.8-4.34-5-4.09-5.22L23.63,234l-3.58-5.6-3.33-5.78-3.06-5.95-2.77-6.12-2.48-6.25-2.18-6.41-1.85-6.56-1.55-6.66L1.6,177.86.73,171,.2,164,0,156.91H9l.18,6.64.5,6.53.83,6.44,1.13,6.34,1.44,6.23,1.75,6.1,2,6L19.18,207l2.59,5.7,2.85,5.56,3.12,5.4,3.37,5.24L34.7,234l3.84,4.87,4.06,4.69L46.89,248l4.48,4.28,4.69,4.06,4.87,3.85L66,263.81l5.24,3.38,5.39,3.11,5.56,2.85,5.7,2.59,5.87,2.31,6,2,6.1,1.75,6.24,1.44,6.33,1.13,6.44.83,6.53.5,6.64.18v0Zm0,0h0Zm129-129h9l-.19,7.07-.54,7-.87,6.9-1.23,6.79-1.55,6.66-1.85,6.56-2.18,6.41-2.48,6.25-2.77,6.12-3.06,5.95L256,228.38l-3.59,5.6-3.87,5.41-4.09,5.22-4.34,5-4.57,4.79-4.8,4.57-5,4.34-5.23,4.1-5.41,3.86-5.59,3.59-5.79,3.32-5.95,3.07L191.63,284l-6.25,2.49L179,288.68l-6.55,1.86-6.67,1.55L159,293.32l-6.89.86-7,.54-7.06.19v-9l6.64-.16,6.54-.5,6.43-.84,6.34-1.12,6.23-1.44,6.1-1.75,6-2,5.86-2.3,5.7-2.6,5.56-2.84,5.4-3.12,5.24-3.37,5.06-3.59,4.87-3.84,4.69-4.06,4.48-4.29,4.28-4.48,4.06-4.69,3.85-4.87,3.59-5.06,3.37-5.24,3.11-5.4,2.85-5.56,2.59-5.7,2.31-5.86,2-6,1.75-6.1,1.44-6.24,1.12-6.33.84-6.44.5-6.54.15-6.64Zm0-.2h9v-.07l0,.08h-9l0,.06v-.07Zm0,.07h0v0ZM271.5.18,276,4.67v152h-9V4.67Zm0,0H276V4.67L271.5.18ZM0,4.67,4.51.18h267v9H4.51Zm0,0V.18H4.51L0,4.67ZM4.51,161.42,0,156.91V4.67H9V156.91Zm0,0H0v-4.51l4.51,4.51ZM9,156.91l-4.5,4.51h0v-9h0L9,156.91Zm-4.5-4.52H9v4.52Z"/><polygon class="cls-2" points="287.29 426.63 359.24 289.77 431.18 152.91 287.29 152.91 143.4 152.91 215.35 289.77 287.29 426.63"/><path class="cls-1" d="M363.09,291.88h0L291.15,428.74l-7.71-4.23,71.94-136.86Zm68.09-143.45L435,155l-72,136.86-7.71-4.23,71.95-136.86Zm0,0h7.32L435,155l-3.86-6.59Zm-143.89,0H431.18v8.95H287.29v-8.95ZM139.54,155l3.86-6.59H287.29v8.95H143.4Zm0,0-3.46-6.59h7.32L139.54,155ZM219.2,287.65l-7.71,4.23L139.54,155l7.71-4.23L219.2,287.65Zm71.95,141.1h-7.71L211.49,291.89l7.71-4.24,71.95,136.87v4.23Zm0,0-3.86,7.33-3.85-7.33Z"/></g></g></svg>